<?xml version="1.0"?>
<svg width="1233" height="1024" xmlns="http://www.w3.org/2000/svg" xmlns:svg="http://www.w3.org/2000/svg" xmlns:se="http://svg-edit.googlecode.com" class="icon" data-spm-anchor-id="a313x.7781069.0.i4">
 <defs>
  <style type="text/css"/>
 </defs>
 <g class="layer">
  <path d="m1230.5888,289.58419l-315.05179,-289.36464l-43.90966,48.30062l263.45795,241.50312l-1037.36566,0l263.45794,-241.50312l-43.90966,-48.30062l-316.14953,289.36464l0,190.78746c0,86.06293 82.98925,156.31838 185.07921,156.31838l194.51978,0c101.87041,0 185.07921,-70.25545 185.07921,-156.31838l0,-125.36207l100.77266,0l0,125.36207c0,86.06293 83.2088,156.31838 185.07921,156.31838l194.51978,0c102.08996,0 185.07921,-70.25545 185.07921,-156.31838l0,-190.78746l-0.65865,0z" fill="#FC60A8" id="svg_2"/>
  <path class="selected" d="m1030.36076,105.60273l-33.81043,57.96075l137.43723,126.02071l-1036.04838,0l137.21768,-126.02071l-33.81043,-57.96075l-200.22804,183.98146l0,190.78746c0,86.06293 83.2088,156.31838 185.07921,156.31838l194.51978,0c102.08995,0 185.07921,-70.25545 185.07921,-156.31838l0,-125.36207l100.99221,0l0,125.36207c0,86.06293 82.98925,156.31838 185.07921,156.31838l194.51978,0c101.87041,0 185.07921,-70.25545 185.07921,-156.31838l0,-190.78746l-201.10624,-183.98146z" data-spm-anchor-id="a313x.7781069.0.i5" fill="#FC60A8" id="svg_3"/>
  <text fill="#494368" font-family="Helvetica" font-size="24" font-weight="bold" id="svg_4" stroke-width="0" text-anchor="middle" transform="matrix(4.1712 0 0 4.1712 178.951 -2863.77)" x="103.989759" xml:space="preserve" y="901.918739">AWESOME WEB EDITOR</text>
 </g>
</svg>